<mxfile host="app.diagrams.net" agent="Mozilla/5.0 (Windows NT 10.0; Win64; x64) AppleWebKit/537.36 (KHTML, like Gecko) Chrome/133.0.0.0 Safari/537.36 Edg/133.0.0.0" version="26.0.16">
  <diagram id="6a731a19-8d31-9384-78a2-239565b7b9f0" name="Page-1">
    <mxGraphModel dx="4051" dy="2220" grid="1" gridSize="10" guides="1" tooltips="1" connect="1" arrows="1" fold="1" page="1" pageScale="1" pageWidth="1169" pageHeight="827" background="none" math="0" shadow="0">
      <root>
        <mxCell id="0" />
        <mxCell id="1" parent="0" />
        <mxCell id="2" value="start" style="shape=mxgraph.flowchart.terminator;strokeWidth=2;gradientColor=none;gradientDirection=north;fontStyle=0;html=1;" parent="1" vertex="1">
          <mxGeometry x="417.63" y="-10" width="135.25" height="50" as="geometry" />
        </mxCell>
        <mxCell id="0K_jHjXR4M1HfS7k7hlN-65" value="" style="edgeStyle=orthogonalEdgeStyle;rounded=0;orthogonalLoop=1;jettySize=auto;html=1;exitX=0.095;exitY=0.5;exitDx=0;exitDy=0;exitPerimeter=0;" edge="1" parent="1" source="3" target="0K_jHjXR4M1HfS7k7hlN-64">
          <mxGeometry relative="1" as="geometry" />
        </mxCell>
        <mxCell id="0K_jHjXR4M1HfS7k7hlN-67" value="&lt;font style=&quot;font-size: 18px;&quot;&gt;不超过&lt;/font&gt;" style="edgeLabel;html=1;align=center;verticalAlign=middle;resizable=0;points=[];" vertex="1" connectable="0" parent="0K_jHjXR4M1HfS7k7hlN-65">
          <mxGeometry x="0.1306" y="-1" relative="1" as="geometry">
            <mxPoint y="-4" as="offset" />
          </mxGeometry>
        </mxCell>
        <mxCell id="3" value="&lt;div style=&quot;&quot;&gt;&lt;span style=&quot;background-color: transparent; color: light-dark(rgb(0, 0, 0), rgb(255, 255, 255)); font-size: 16px;&quot;&gt;计算当前的R值，检查当前的R值是否满足两两之间&lt;/span&gt;&lt;/div&gt;&lt;div style=&quot;&quot;&gt;&lt;span style=&quot;background-color: transparent; color: light-dark(rgb(0, 0, 0), rgb(255, 255, 255)); font-size: 16px;&quot;&gt;的差距不超过&lt;/span&gt;&lt;span style=&quot;background-color: transparent; text-wrap-mode: wrap; color: rgb(64, 64, 64); font-family: Inter, system-ui, -apple-system, BlinkMacSystemFont, &amp;quot;Segoe UI&amp;quot;, Roboto, &amp;quot;Noto Sans&amp;quot;, Ubuntu, Cantarell, &amp;quot;Helvetica Neue&amp;quot;, Oxygen, &amp;quot;Open Sans&amp;quot;, sans-serif; font-size: 16px;&quot;&gt;900,000（只需考虑前一半，因为墩子的距离是对称的）&lt;/span&gt;&lt;/div&gt;" style="shape=mxgraph.flowchart.data;strokeWidth=2;gradientColor=none;gradientDirection=north;fontStyle=0;html=1;align=center;" parent="1" vertex="1">
          <mxGeometry x="240.5" y="110" width="489.5" height="110" as="geometry" />
        </mxCell>
        <mxCell id="0K_jHjXR4M1HfS7k7hlN-70" value="" style="edgeStyle=orthogonalEdgeStyle;rounded=0;orthogonalLoop=1;jettySize=auto;html=1;" edge="1" parent="1" source="5" target="0K_jHjXR4M1HfS7k7hlN-69">
          <mxGeometry relative="1" as="geometry" />
        </mxCell>
        <mxCell id="5" value="找到第一个超过条件的R值，&lt;div&gt;获取此处墩子的位置&lt;/div&gt;" style="shape=mxgraph.flowchart.data;strokeWidth=2;gradientColor=none;gradientDirection=north;fontStyle=0;html=1;" parent="1" vertex="1">
          <mxGeometry x="370" y="260" width="214.75" height="90" as="geometry" />
        </mxCell>
        <mxCell id="7" style="fontStyle=1;strokeColor=#003366;strokeWidth=1;html=1;" parent="1" source="2" target="3" edge="1">
          <mxGeometry relative="1" as="geometry" />
        </mxCell>
        <mxCell id="8" style="fontStyle=1;strokeColor=#003366;strokeWidth=1;html=1;" parent="1" source="3" target="5" edge="1">
          <mxGeometry relative="1" as="geometry" />
        </mxCell>
        <mxCell id="0K_jHjXR4M1HfS7k7hlN-55" value="超过" style="edgeLabel;html=1;align=center;verticalAlign=middle;resizable=0;points=[];" vertex="1" connectable="0" parent="8">
          <mxGeometry x="-0.1667" y="1" relative="1" as="geometry">
            <mxPoint as="offset" />
          </mxGeometry>
        </mxCell>
        <mxCell id="0K_jHjXR4M1HfS7k7hlN-78" value="" style="edgeStyle=orthogonalEdgeStyle;rounded=0;orthogonalLoop=1;jettySize=auto;html=1;" edge="1" parent="1" source="13" target="0K_jHjXR4M1HfS7k7hlN-77">
          <mxGeometry relative="1" as="geometry" />
        </mxCell>
        <mxCell id="0K_jHjXR4M1HfS7k7hlN-79" value="符合条件" style="edgeLabel;html=1;align=center;verticalAlign=middle;resizable=0;points=[];" vertex="1" connectable="0" parent="0K_jHjXR4M1HfS7k7hlN-78">
          <mxGeometry x="-0.2518" y="1" relative="1" as="geometry">
            <mxPoint as="offset" />
          </mxGeometry>
        </mxCell>
        <mxCell id="0K_jHjXR4M1HfS7k7hlN-80" style="edgeStyle=orthogonalEdgeStyle;rounded=0;orthogonalLoop=1;jettySize=auto;html=1;exitX=0.905;exitY=0.5;exitDx=0;exitDy=0;exitPerimeter=0;entryX=1;entryY=0.5;entryDx=0;entryDy=0;" edge="1" parent="1" source="13" target="0K_jHjXR4M1HfS7k7hlN-73">
          <mxGeometry relative="1" as="geometry">
            <Array as="points">
              <mxPoint x="561" y="700" />
              <mxPoint x="600" y="700" />
              <mxPoint x="600" y="565" />
            </Array>
          </mxGeometry>
        </mxCell>
        <mxCell id="0K_jHjXR4M1HfS7k7hlN-81" value="不符合条件，继续遍历优化区间的值" style="edgeLabel;html=1;align=center;verticalAlign=middle;resizable=0;points=[];" vertex="1" connectable="0" parent="0K_jHjXR4M1HfS7k7hlN-80">
          <mxGeometry x="0.2813" relative="1" as="geometry">
            <mxPoint y="18" as="offset" />
          </mxGeometry>
        </mxCell>
        <mxCell id="0K_jHjXR4M1HfS7k7hlN-83" value="" style="edgeStyle=orthogonalEdgeStyle;rounded=0;orthogonalLoop=1;jettySize=auto;html=1;exitX=0.152;exitY=0.474;exitDx=0;exitDy=0;exitPerimeter=0;" edge="1" parent="1" source="13" target="0K_jHjXR4M1HfS7k7hlN-82">
          <mxGeometry relative="1" as="geometry" />
        </mxCell>
        <mxCell id="13" value="计算R值并检验是否符合条件" style="shape=mxgraph.flowchart.data;strokeWidth=2;gradientColor=none;gradientDirection=north;fontStyle=0;html=1;" parent="1" vertex="1">
          <mxGeometry x="374.32" y="640" width="206.12" height="100" as="geometry" />
        </mxCell>
        <mxCell id="0K_jHjXR4M1HfS7k7hlN-64" value="该组不需要优化" style="rounded=1;whiteSpace=wrap;html=1;strokeWidth=2;gradientColor=none;gradientDirection=north;fontStyle=0;" vertex="1" parent="1">
          <mxGeometry x="-10" y="135" width="120" height="60" as="geometry" />
        </mxCell>
        <mxCell id="0K_jHjXR4M1HfS7k7hlN-74" value="" style="edgeStyle=orthogonalEdgeStyle;rounded=0;orthogonalLoop=1;jettySize=auto;html=1;" edge="1" parent="1" source="0K_jHjXR4M1HfS7k7hlN-69" target="0K_jHjXR4M1HfS7k7hlN-73">
          <mxGeometry relative="1" as="geometry" />
        </mxCell>
        <mxCell id="0K_jHjXR4M1HfS7k7hlN-69" value="&lt;span style=&quot;text-wrap-mode: nowrap;&quot;&gt;定义优化区间（定义墩子位置的范围）&lt;/span&gt;" style="whiteSpace=wrap;html=1;strokeWidth=2;gradientColor=none;gradientDirection=north;fontStyle=0;" vertex="1" parent="1">
          <mxGeometry x="374.87" y="400" width="205" height="60" as="geometry" />
        </mxCell>
        <mxCell id="0K_jHjXR4M1HfS7k7hlN-75" value="" style="edgeStyle=orthogonalEdgeStyle;rounded=0;orthogonalLoop=1;jettySize=auto;html=1;" edge="1" parent="1" source="0K_jHjXR4M1HfS7k7hlN-73" target="13">
          <mxGeometry relative="1" as="geometry" />
        </mxCell>
        <mxCell id="0K_jHjXR4M1HfS7k7hlN-73" value="&lt;span style=&quot;text-wrap-mode: nowrap;&quot;&gt;在该范围内依次取10个值&lt;/span&gt;" style="whiteSpace=wrap;html=1;strokeWidth=2;gradientColor=none;gradientDirection=north;fontStyle=0;" vertex="1" parent="1">
          <mxGeometry x="398.68" y="530" width="157.37" height="70" as="geometry" />
        </mxCell>
        <mxCell id="0K_jHjXR4M1HfS7k7hlN-85" value="" style="edgeStyle=orthogonalEdgeStyle;rounded=0;orthogonalLoop=1;jettySize=auto;html=1;" edge="1" parent="1" source="0K_jHjXR4M1HfS7k7hlN-77" target="0K_jHjXR4M1HfS7k7hlN-84">
          <mxGeometry relative="1" as="geometry" />
        </mxCell>
        <mxCell id="0K_jHjXR4M1HfS7k7hlN-77" value="&lt;span style=&quot;text-wrap-mode: nowrap;&quot;&gt;更新墩子的位置&lt;/span&gt;" style="whiteSpace=wrap;html=1;strokeWidth=2;gradientColor=none;gradientDirection=north;fontStyle=0;" vertex="1" parent="1">
          <mxGeometry x="417.38" y="840" width="120" height="60" as="geometry" />
        </mxCell>
        <mxCell id="0K_jHjXR4M1HfS7k7hlN-94" style="edgeStyle=orthogonalEdgeStyle;rounded=0;orthogonalLoop=1;jettySize=auto;html=1;exitX=0.5;exitY=1;exitDx=0;exitDy=0;" edge="1" parent="1" source="0K_jHjXR4M1HfS7k7hlN-82">
          <mxGeometry relative="1" as="geometry">
            <mxPoint x="409.99999999999955" y="1190" as="targetPoint" />
            <Array as="points">
              <mxPoint x="202" y="1200" />
              <mxPoint x="410" y="1200" />
            </Array>
          </mxGeometry>
        </mxCell>
        <mxCell id="0K_jHjXR4M1HfS7k7hlN-82" value="优化区间遍历结束，但还没有符合条件的值" style="whiteSpace=wrap;html=1;strokeWidth=2;gradientColor=none;gradientDirection=north;fontStyle=0;" vertex="1" parent="1">
          <mxGeometry x="141.5" y="750" width="120" height="60" as="geometry" />
        </mxCell>
        <mxCell id="0K_jHjXR4M1HfS7k7hlN-84" value="该组优化完成" style="ellipse;whiteSpace=wrap;html=1;strokeWidth=2;gradientColor=none;gradientDirection=north;fontStyle=0;" vertex="1" parent="1">
          <mxGeometry x="414.76" y="1000" width="122.62" height="100" as="geometry" />
        </mxCell>
        <mxCell id="0K_jHjXR4M1HfS7k7hlN-90" value="end" style="shape=mxgraph.flowchart.terminator;strokeWidth=2;gradientColor=none;gradientDirection=north;fontStyle=0;html=1;" vertex="1" parent="1">
          <mxGeometry x="409.74" y="1170" width="135.25" height="50" as="geometry" />
        </mxCell>
        <mxCell id="0K_jHjXR4M1HfS7k7hlN-91" style="edgeStyle=orthogonalEdgeStyle;rounded=0;orthogonalLoop=1;jettySize=auto;html=1;exitX=0.5;exitY=1;exitDx=0;exitDy=0;entryX=0.5;entryY=0;entryDx=0;entryDy=0;entryPerimeter=0;" edge="1" parent="1" source="0K_jHjXR4M1HfS7k7hlN-84" target="0K_jHjXR4M1HfS7k7hlN-90">
          <mxGeometry relative="1" as="geometry" />
        </mxCell>
        <mxCell id="0K_jHjXR4M1HfS7k7hlN-93" style="edgeStyle=orthogonalEdgeStyle;rounded=0;orthogonalLoop=1;jettySize=auto;html=1;exitX=0.5;exitY=1;exitDx=0;exitDy=0;entryX=0;entryY=0.5;entryDx=0;entryDy=0;entryPerimeter=0;" edge="1" parent="1" source="0K_jHjXR4M1HfS7k7hlN-64" target="0K_jHjXR4M1HfS7k7hlN-90">
          <mxGeometry relative="1" as="geometry" />
        </mxCell>
      </root>
    </mxGraphModel>
  </diagram>
</mxfile>
